<svg xmlns="http://www.w3.org/2000/svg" width="30.733" height="30.745" viewBox="0 0 30.733 30.745"><defs><style>.a{fill:#3b5997;}</style></defs><g transform="translate(2.053 2.054)"><path class="a" d="M550.784-464.969v-.646c0-3.232.013-6.465-.006-9.7,0-.463.136-.579.581-.565,1.019.032,2.039.012,3.059.009.575,0,.818-.236.883-.805.114-.995.229-1.989.36-2.982.112-.847-.155-1.173-1-1.174-1.161,0-2.322.006-3.483-.01-.13,0-.37-.134-.37-.207a32.972,32.972,0,0,1,.054-3.428,1.532,1.532,0,0,1,1.7-1.468c.674-.026,1.349-.008,2.024-.014.7-.007.965-.271.972-.972.008-.863.009-1.726,0-2.589-.007-.547-.242-.872-.722-.866a34.714,34.714,0,0,0-4.406.165,5.073,5.073,0,0,0-4.384,4.573,39.917,39.917,0,0,0-.112,4.273c0,.425-.1.577-.546.554-.7-.037-1.412-.014-2.118-.008-.607,0-.906.286-.908.887q-.007,1.6.023,3.2c.012.647.255.871.894.873.722,0,1.444.016,2.165-.006.35-.011.494.065.492.461q-.026,5.037-.007,10.073c0,.327-.093.431-.425.43-3.593-.011-7.187.01-10.78-.015a4.088,4.088,0,0,1-3.983-4.027q-.012-11.321,0-22.642a4.105,4.105,0,0,1,4.061-4.047q11.3-.007,22.595,0a4.088,4.088,0,0,1,4.06,4q.024,11.368,0,22.736a4.042,4.042,0,0,1-3.838,3.97c-2.194.07-4.393.017-6.59.016A1.5,1.5,0,0,1,550.784-464.969Z" transform="translate(-532.781 493.591)"/></g></svg>