<svg xmlns="http://www.w3.org/2000/svg" width="28.338" height="27.078" viewBox="0 0 28.338 27.078"><defs><style>.a{fill:#3d7bb5;}</style></defs><g transform="translate(196 -20)"><path class="a" d="M28.338,26.16V36.637H22.264V26.861c0-2.456-.878-4.131-3.077-4.131a3.323,3.323,0,0,0-3.116,2.222,4.156,4.156,0,0,0-.2,1.481v10.2H9.794s.082-16.556,0-18.271h6.075v2.59c-.012.019-.028.04-.04.059h.04v-.059a6.032,6.032,0,0,1,5.475-3.019C25.341,17.936,28.338,20.548,28.338,26.16Zm-24.9-16.6a3.166,3.166,0,1,0-.081,6.315H3.4a3.167,3.167,0,1,0,.04-6.315ZM.361,36.637H6.434V18.366H.361Z" transform="translate(-196 10.442)"/></g></svg>