<svg xmlns="http://www.w3.org/2000/svg" xmlns:xlink="http://www.w3.org/1999/xlink" width="1366" height="445" viewBox="0 0 1366 445"><defs><style>.a{fill:#fff;}.b{fill:url(#a);}.c{clip-path:url(#c);}.d,.g{clip-path:url(#e);}.e{fill:url(#f);}.f{fill:url(#g);}.g{opacity:0.73;}.h{opacity:0.31;}.i{opacity:0.27;}.j,.k{stroke:#000;}.k{fill:none;}.l{opacity:0.49;}</style><linearGradient id="a" x1="0.955" y1="0.25" x2="-0.005" y2="0.944" gradientUnits="objectBoundingBox"><stop offset="0" stop-color="#ff00b2"/><stop offset="0.552" stop-color="#8300a9"/><stop offset="1" stop-color="#420c61"/></linearGradient><clipPath id="c"><rect class="a" width="1366" height="445" transform="translate(0 80)"/></clipPath><clipPath id="e"><path class="b" d="M0,0H1366s248.312,485.739,0,384S721.089,445.365,339.942,435.064,0,409.311,0,409.311Z" transform="translate(0 80)"/></clipPath><linearGradient id="f" x1="0.955" y1="0.25" x2="-0.005" y2="0.944" gradientUnits="objectBoundingBox"><stop offset="0" stop-color="#ff00b2"/><stop offset="0.285" stop-color="#a90098"/><stop offset="1" stop-color="#610c53"/></linearGradient><linearGradient id="g" x1="0.955" y1="0.25" x2="-0.005" y2="0.944" gradientUnits="objectBoundingBox"><stop offset="0" stop-color="#ff00b2"/><stop offset="0.623" stop-color="#a90098"/><stop offset="1" stop-color="#610c53"/></linearGradient></defs><g class="c" transform="translate(0 -80)"><path class="b" d="M0,0H1366s248.312,485.739,0,384S721.089,445.365,339.942,435.064,0,409.311,0,409.311Z" transform="translate(0 80)"/><g class="d"><path class="e" d="M0,0H1366s248.312,485.739,0,384S721.089,445.365,339.942,435.064,0,409.311,0,409.311Z" transform="matrix(0.999, 0.035, -0.035, 0.999, 15.049, 79.393)"/><path class="f" d="M1.781-106.635,1366,0s248.312,485.739,0,384S721.089,445.365,339.942,435.064,0,409.311,0,409.311Z" transform="translate(-61.775 194.893) rotate(-14)"/></g><g class="g" transform="translate(3 -2)"><g class="h" transform="translate(-399 15)"><g class="i" transform="translate(-96 -440)"><path class="j" d="M47.715,362.254,1078,0" transform="translate(435.5 468.5)"/><line class="k" x1="837" y2="701" transform="translate(452.5 98.5)"/><line class="k" x2="958" y2="519" transform="translate(403.5 331.5)"/><line class="k" x2="57" y2="727" transform="translate(1304.5 123.5)"/><line class="k" y1="530" x2="886" transform="translate(403.5 98.5)"/><line class="k" y1="308" x2="386" transform="translate(403.5 -14.5)"/><line class="k" x2="878" transform="translate(483.5 850.5)"/><line class="k" x1="87" y1="246" transform="translate(221.5 0.5)"/><line class="k" x1="196" y1="42" transform="translate(79.5 235.5)"/><line class="k" x1="162" y2="177" transform="translate(79.5 58.5)"/><line class="k" x1="290" y2="186" transform="translate(0.5 356.5)"/><line class="k" x2="324" y2="573" transform="translate(79.5 235.5)"/><line class="k" x2="74" y2="424" transform="translate(361.5 375.5)"/><line class="k" x1="267" y1="60" transform="translate(131.5 774.5)"/><line class="k" x1="102" y2="84" transform="translate(-22.5 235.5)"/><line class="k" x1="122" y1="137" transform="translate(-42.5 98.5)"/><line class="k" y1="146" x2="272" transform="translate(131.5 628.5)"/><line class="k" y1="233" x2="131" transform="translate(0.5 774.5)"/><line class="k" x2="158" y2="31" transform="translate(-26.5 745.5)"/><line class="k" x1="55" y2="350" transform="translate(131.5 424.5)"/><line class="k" x2="48" y2="241" transform="translate(435.5 879.5)"/><line class="k" x1="324" y2="233" transform="translate(79.5 859.5)"/><g transform="translate(1316.5 -92.5)"><line class="k" y1="168" x2="263.603" transform="translate(37)"/><line class="k" x2="442" y2="90" transform="translate(37 191)"/><line class="k" x2="185.869" y2="203.079" transform="translate(277.656 66.546)"/><line class="k" x2="610" y2="491" transform="translate(12 209)"/><line class="k" x1="493" y2="309" transform="translate(46 633)"/><line class="k" x1="175" y2="344" transform="translate(46 598)"/><line class="k" y1="117.96" x2="495.863" transform="translate(-92 888.04)"/><line class="k" x2="117.029" y2="96.376" transform="translate(463.525 269.625)"/><line class="k" y1="399.561" x2="302.5" transform="translate(301 112.439)"/><line class="k" x1="1312.863" y1="480.04" transform="translate(-909 408)"/><line class="k" x1="150.301" y1="267.33" transform="translate(403.863 888.04)"/><line class="k" x1="200.137" y2="40.335" transform="translate(403.863 850)"/><line class="k" x2="125.863" y2="290.04" transform="translate(278 598)"/><line class="k" x1="46" y2="343.019" transform="translate(0 942)"/><line class="k" x2="417.525" y2="310.894" transform="translate(46 942)"/></g><line class="k" x1="115" y2="450" transform="translate(883.5 649.5)"/><line class="k" x2="236" y2="649" transform="translate(762.5 0.5)"/><line class="k" x1="129" y1="79" transform="translate(1175.5 -14.5)"/><circle cx="7" cy="7" r="7" transform="translate(1355 844)"/></g><g transform="translate(-96 -440)"><circle cx="8" cy="8" r="8" transform="translate(72 228)"/><circle cx="5" cy="5" r="5" transform="translate(181 420)"/><circle cx="8" cy="8" r="8" transform="translate(123 767)"/><circle cx="5" cy="5" r="5" transform="translate(401 620)"/><circle cx="10" cy="10" r="10" transform="translate(718 425)"/><circle cx="5" cy="5" r="5" transform="translate(992 647)"/><g class="l"><circle cx="5" cy="5" r="5" transform="translate(882 333)"/></g><circle cx="5" cy="5" r="5" transform="translate(1788 186)"/><circle cx="7" cy="7" r="7" transform="translate(1713 789)"/><circle cx="3.5" cy="3.5" r="3.5" transform="translate(1853 537)"/><circle cx="7" cy="7" r="7" transform="translate(1158 583)"/></g></g></g></g></svg>