<svg xmlns="http://www.w3.org/2000/svg" xmlns:xlink="http://www.w3.org/1999/xlink" width="1366" height="698" viewBox="0 0 1366 698"><defs><style>.a{fill:url(#a);}.b{clip-path:url(#b);}.c{fill:#ff0056;}.d,.f,.g,.i,.k{fill:none;}.d{stroke:#362f5f;}.d,.f{stroke-width:2px;}.e{fill:#f05;}.f{stroke:#ccc;}.h{opacity:0.15;}.i{stroke:#000;opacity:0.27;}.j,.l{stroke:none;}.l{fill:#fdbd1f;}</style><radialGradient id="a" cx="0.5" cy="0.5" r="0.837" gradientTransform="translate(0.245) scale(0.511 1)" gradientUnits="objectBoundingBox"><stop offset="0" stop-color="#fff"/><stop offset="1" stop-color="#fbfbfb"/></radialGradient><clipPath id="b"><rect class="a" width="1366" height="698" transform="translate(0 73)"/></clipPath></defs><g class="b" transform="translate(0 -73)"><rect class="a" width="1366" height="698" transform="translate(0 72)"/><g transform="translate(0 -591)"><g transform="translate(722.393 165)"><g transform="translate(491.184 620.016)"><path class="c" d="M494.777,655.015A3.594,3.594,0,0,1,492.119,649l15.093-16.6a4.069,4.069,0,0,1,2.6-1.395,4.01,4.01,0,0,1,3.023.834l6.675,5.613L534.4,620.332a3.595,3.595,0,0,1,5.426,4.717l-16.836,19.358a4.128,4.128,0,0,1-2.627,1.44,4.048,4.048,0,0,1-3.038-.835l-6.723-5.654-13.166,14.482A3.583,3.583,0,0,1,494.777,655.015Z" transform="translate(-491.184 -619.098)"/></g><g transform="translate(527.58 617)"><path class="c" d="M530.453,632.665a3.594,3.594,0,0,1-3.531-2.947l-1.011-5.529h-5.817a3.594,3.594,0,0,1,0-7.188H531.9l2.089,11.422A3.592,3.592,0,0,1,531.1,632.6,3.47,3.47,0,0,1,530.453,632.665Z" transform="translate(-516.5 -617)"/></g></g><g class="d" transform="translate(1144 1052)"><circle class="j" cx="10" cy="10" r="10"/><circle class="k" cx="10" cy="10" r="9"/></g><circle class="e" cx="4.5" cy="4.5" r="4.5" transform="translate(235 974)"/><g class="f" transform="translate(144 1204)"><circle class="j" cx="17.5" cy="17.5" r="17.5"/><circle class="k" cx="17.5" cy="17.5" r="16.5"/></g><g class="g" transform="translate(1204.5 1302.5) rotate(-90)"><path class="j" d="M11.259,3.08a2,2,0,0,1,3.482,0l9.572,16.935A2,2,0,0,1,22.572,23H3.428a2,2,0,0,1-1.741-2.984Z"/><path class="l" d="M 13 4.064569473266602 C 12.99999809265137 4.064569473266602 12.99999618530273 4.064569473266602 13 4.064559936523438 L 3.427799224853516 21 L 22.57220077514648 21 L 13.00001049041748 4.064569473266602 C 13.00000667572021 4.064569473266602 13.00000381469727 4.064569473266602 13 4.064569473266602 M 13 2.064567565917969 C 13.67916488647461 2.064567565917969 14.35832977294922 2.403194427490234 14.74112987518311 3.080450057983398 L 24.31332969665527 20.01588821411133 C 25.0669002532959 21.34912872314453 24.10367965698242 23 22.57220077514648 23 L 3.427799224853516 23 C 1.896320343017578 23 0.9330997467041016 21.34912872314453 1.686670303344727 20.01588821411133 L 11.25887012481689 3.080450057983398 C 11.64167022705078 2.403194427490234 12.32083511352539 2.064567565917969 13 2.064567565917969 Z"/></g></g><g class="d" transform="translate(99 181)"><circle class="j" cx="10" cy="10" r="10"/><circle class="k" cx="10" cy="10" r="9"/></g><g class="h"><g class="i" transform="translate(89.476 -130.048)"><circle class="j" cx="593.524" cy="593.524" r="593.524"/><circle class="k" cx="593.524" cy="593.524" r="593.024"/></g><g class="i" transform="translate(215.6 -3.924)"><circle class="j" cx="467.4" cy="467.4" r="467.4"/><circle class="k" cx="467.4" cy="467.4" r="466.9"/></g><g class="i" transform="translate(370.163 150.639)"><circle class="j" cx="312.837" cy="312.837" r="312.837"/><circle class="k" cx="312.837" cy="312.837" r="312.337"/></g></g></g></svg>