<svg xmlns="http://www.w3.org/2000/svg" width="89.267" height="89.266" viewBox="0 0 89.267 89.266"><defs><style>.a{fill:#fff;opacity:0;}.b{fill:#ff0056;}</style></defs><g transform="translate(7)"><rect class="a" width="89.266" height="89.266" transform="translate(-7)"/><circle class="b" cx="11" cy="11" r="11" transform="translate(25 39.827)"/><g transform="translate(-439.269 -598.783)"><path d="M451.209,651.479v-3.29a5.779,5.779,0,0,0,.11-.591,23.144,23.144,0,0,1,1.9-7.385,23.968,23.968,0,0,1,8.18-10.079,24.075,24.075,0,0,1,27.627-.271c.716.489,1.4,1.029,2.156,1.591.8-.816,1.584-1.638,2.4-2.424a.765.765,0,0,0,.236-.941c-.5-1.393-.932-2.807-1.429-4.2a.78.78,0,0,1,.229-.95q5.419-5.388,10.812-10.8c.153-.153.277-.335.415-.5h.122c.734,2.232,1.479,4.46,2.194,6.7a1.036,1.036,0,0,0,.767.742c1.987.639,3.966,1.307,5.947,1.969.216.073.425.169.658.263-.077.1-.109.15-.151.192q-5.6,5.6-11.212,11.189a.861.861,0,0,1-.723.15c-1.471-.457-2.926-.965-4.392-1.437-.182-.059-.484-.082-.594.022-.91.864-1.787,1.762-2.687,2.662.459.591.9,1.122,1.3,1.682a18.048,18.048,0,0,1,1.164,1.784c4.57,8.361,4.653,16.742-.295,24.925a24.09,24.09,0,0,1-34.07,7.368,23.933,23.933,0,0,1-10.389-16.322C451.37,652.844,451.3,652.159,451.209,651.479Zm37.2-17.4a20.435,20.435,0,1,0,2.758,28.771c7.112-8.567,5.424-20.009-.046-26l-5.207,5.209a13.042,13.042,0,0,1-19.752,16.931,13.041,13.041,0,0,1,17-19.671Zm-7.936,8.01a9.271,9.271,0,1,0,1.4,14.4,9.1,9.1,0,0,0,1.262-11.7.349.349,0,0,0-.107.049c-1.209,1.2-2.41,2.412-3.627,3.606a.921.921,0,0,0-.319.888,3.712,3.712,0,1,1-7.385.709,3.57,3.57,0,0,1,3.494-3.87,2.785,2.785,0,0,0,2.34-1.1c.827-.865,1.69-1.7,2.535-2.546C480.206,642.388,480.334,642.237,480.471,642.088Zm21.842-23.567c-1.92,1.924-3.759,3.757-5.578,5.608a.7.7,0,0,0-.115.578c.245.835.5,1.67.827,2.477a1.249,1.249,0,0,0,.635.613c.711.291,1.463.48,2.181.756a.847.847,0,0,0,1.059-.239c1.613-1.658,3.262-3.281,4.9-4.918.14-.14.269-.29.453-.49-.958-.32-1.847-.636-2.749-.911a.9.9,0,0,1-.683-.669C502.966,620.42,502.648,619.527,502.313,618.521Z"/></g></g></svg>