<svg xmlns="http://www.w3.org/2000/svg" width="89.267" height="89.266" viewBox="0 0 89.267 89.266"><defs><style>.a,.c{fill:#fff;}.a{opacity:0;}.b{fill:#ff0056;}</style></defs><rect class="a" width="89.266" height="89.266" transform="translate(0)"/><g transform="translate(18.027 15.416)"><path d="M368.986,388.469c0-.823,0-1.577,0-2.331a3.6,3.6,0,0,1,7.2-.324c.072.856.012,1.722.012,2.654h1.794c1.825,0,3.649.013,5.473-.02a1.054,1.054,0,0,0,.725-.379q1.666-2.25,3.262-4.551a1.638,1.638,0,0,1,1.459-.772,26.537,26.537,0,0,0,4.725-.281,8.451,8.451,0,0,0,6.531-7.817c.006-.13.009-.261.02-.391.068-.772.471-1.219,1.093-1.213s.98.492,1.066,1.245a12.986,12.986,0,0,0,.418,2.487,8.578,8.578,0,0,0,8.012,5.979,1.129,1.129,0,0,1,1.19.714,1.041,1.041,0,0,1-1.017,1.386,8.783,8.783,0,0,0-4.532,1.415c.474.693.937,1.4,1.432,2.075.08.112.3.14.459.173a6.256,6.256,0,0,1,5.243,6.415q0,11.664,0,23.329a6.138,6.138,0,0,1-5.236,6.39,23.946,23.946,0,0,1-3.706.085q-18.344.006-36.687.011a6.11,6.11,0,0,1-6.116-3.778,5.929,5.929,0,0,1-.491-2.328q-.052-11.892-.017-23.785a6.114,6.114,0,0,1,6.271-6.387C368.017,388.458,368.468,388.469,368.986,388.469Zm35.76-.877a7.128,7.128,0,0,0-2.118,3.586,22.211,22.211,0,0,0-.3,2.314,1.135,1.135,0,0,1-1.075,1.1,1.089,1.089,0,0,1-1.048-1.045c-.029-.215-.027-.433-.048-.649a8.473,8.473,0,0,0-5.666-7.5,12.8,12.8,0,0,0-4.819-.544.953.953,0,0,0-.906.454c-1,1.446-2.069,2.844-3.045,4.305a2,2,0,0,1-1.881.983c-5.407-.036-10.815-.022-16.222-.02a4.077,4.077,0,0,0-4.234,4.161q-.024,11.857,0,23.714a4.074,4.074,0,0,0,4.268,4.2q19.643.005,39.286,0a4.13,4.13,0,0,0,4.479-4.5c-.008-4.6.006-9.208,0-13.811,0-3.366.032-6.733-.062-10.1a3.893,3.893,0,0,0-3.813-3.651,1.368,1.368,0,0,1-1.191-.651C405.836,389.16,405.3,388.4,404.745,387.592Zm1.592-3.762a11.241,11.241,0,0,1-5.088-5.052,11.226,11.226,0,0,1-5.02,5.047,11.147,11.147,0,0,1,5.019,4.994A11.186,11.186,0,0,1,406.337,383.83Zm-32.249,4.6c0-.794.01-1.548,0-2.3a1.5,1.5,0,0,0-2.987-.19c-.062.814-.014,1.635-.014,2.492Z" transform="translate(-361.286 -373.045)"/><path class="b" d="M421.5,386.318a11.187,11.187,0,0,0-5.09,4.989,11.147,11.147,0,0,0-5.019-4.994,11.226,11.226,0,0,0,5.02-5.047A11.24,11.24,0,0,0,421.5,386.318Z" transform="translate(-376.452 -375.533)"/><path d="M414.28,414.471A11.6,11.6,0,1,1,402.6,402.887,11.6,11.6,0,0,1,414.28,414.471Zm-11.561-9.454a9.485,9.485,0,1,0,9.447,9.9A9.468,9.468,0,0,0,402.719,405.016Z" transform="translate(-370.305 -382.077)"/><path d="M371.931,408.85a3.894,3.894,0,0,1,3.871-3.909,3.958,3.958,0,0,1,3.934,3.943,3.906,3.906,0,0,1-3.932,3.86A3.863,3.863,0,0,1,371.931,408.85Zm5.662-.03a1.79,1.79,0,0,0-1.793-1.766,1.8,1.8,0,1,0,.064,3.6A1.8,1.8,0,0,0,377.593,408.82Z" transform="translate(-364.508 -382.699)"/><path class="c" d="M398.465,416.686a6.465,6.465,0,1,0,6.529-6.454A6.484,6.484,0,0,0,398.465,416.686Z" transform="translate(-372.538 -384.3)"/><path class="b" d="M378.5,409.737a1.8,1.8,0,0,1-1.729,1.835,1.8,1.8,0,1,1-.064-3.6A1.79,1.79,0,0,1,378.5,409.737Z" transform="translate(-365.416 -383.616)"/><path d="M398.465,416.686a6.464,6.464,0,1,1,6.4,6.519A6.479,6.479,0,0,1,398.465,416.686Zm6.47-4.314a4.357,4.357,0,1,0-.015,8.714,4.4,4.4,0,0,0,4.381-4.326A4.359,4.359,0,0,0,404.935,412.371Z" transform="translate(-372.538 -384.3)"/><path class="b" d="M405.846,413.3a4.359,4.359,0,0,1,4.367,4.388,4.369,4.369,0,0,1-8.738-.082A4.348,4.348,0,0,1,405.846,413.3Z" transform="translate(-373.449 -385.229)"/></g></svg>