<svg xmlns="http://www.w3.org/2000/svg" width="89.267" height="89.266" viewBox="0 0 89.267 89.266"><defs><style>.a,.c{fill:#fff;}.a{opacity:0;}.b{fill:#ff0056;}</style></defs><rect class="a" width="89.266" height="89.266" transform="translate(0)"/><g transform="translate(12.735 8.757)"><path d="M884.625-135.531a23.063,23.063,0,0,0-17.076,8.326,23.624,23.624,0,0,0-5.646,14.081c-.182,2.74-1.9,3.737-4.373,2.524-4.9-2.406-5.11-2.842-3.934-8.057,3.258-14.44,14.533-24.311,29.507-25.832l1.5-.155c0-.745-.034-1.488.007-2.227.1-1.7,1.229-2.415,2.628-1.535q5.334,3.352,10.561,6.873a1.61,1.61,0,0,1,.008,2.9q-5.232,3.51-10.565,6.867c-1.324.831-2.482.16-2.608-1.384C884.578-133.844,884.625-134.55,884.625-135.531Zm-25.077,23.575c.115-.752.2-1.141.23-1.535a25.86,25.86,0,0,1,23.777-24.122c3.029-.3,3.125-.216,3.205,2.737a7.434,7.434,0,0,0,.139.833l9.306-6.036-9.351-6.049c-.24,3.477-.24,3.477-3.481,3.718-14.474,1.077-26.569,12.593-28.119,26.819a1.944,1.944,0,0,0,.454,1.552A42.16,42.16,0,0,0,859.547-111.957Z" transform="translate(-853 148.785)"/><path d="M858.425-23.8c-.806.434-1.5.874-2.253,1.2-1.258.544-2.393-.076-2.339-1.431.176-4.374.422-8.749.78-13.112.112-1.375,1.254-1.733,2.4-1.166q5.715,2.843,11.342,5.86c1.263.68,1.243,2.026.073,2.878-.616.449-1.305.8-2.115,1.281a22.747,22.747,0,0,0,11.374,9.462,23.633,23.633,0,0,0,19.283-.827c3.2-1.522,4.758-.582,4.9,3.013q.034.887.055,1.775c.061,2.39-.379,3.063-2.637,4.039a32.73,32.73,0,0,1-39.819-11.5C859.132-22.812,858.79-23.284,858.425-23.8ZM856.617-36.14c-.226,3.83-.434,7.365-.65,11.039,3.257-1.368,3.257-1.368,5.1,1.349A30.56,30.56,0,0,0,898.133-12.7c.607-.256,1.5-.726,1.568-1.2a34.409,34.409,0,0,0,.075-4.725c-1.138.526-1.762.813-2.385,1.1a25.86,25.86,0,0,1-32.3-8.749c-1.662-2.438-2.123-2.981.906-4.365.133-.061.2-.27.354-.493Z" transform="translate(-853.536 77.759)"/><path d="M993.6-79.238c.809.5,1.43.838,2.009,1.238,1.392.963,1.422,2.277-.055,3.063q-5.56,2.956-11.221,5.723a1.619,1.619,0,0,1-2.518-1.481c-.295-4.193-.535-8.391-.693-12.591-.058-1.541,1.131-2.207,2.55-1.572.691.309,1.343.7,2.149,1.133,3.529-7.3,3.582-14.459.034-21.6a23.383,23.383,0,0,0-8.323-9.276c-2.667-1.743-2.678-3.587-.066-5.338,4.307-2.887,4.652-2.868,8.552.481a32.941,32.941,0,0,1,8.437,38.342C994.191-80.533,993.923-79.949,993.6-79.238ZM977.363-117.3c.8.569,1.3.94,1.818,1.291a25.817,25.817,0,0,1,9.058,32.062c-1.4,3.051-1.4,3.05-4.4,1.637-.091-.043-.22-.005-.5-.005.195,3.562.389,7.113.6,10.919l9.929-5.07c-.451-.328-.628-.477-.823-.6-2.226-1.36-2.23-1.361-1.129-3.633a30.6,30.6,0,0,0,2.966-18.289A30.038,30.038,0,0,0,982.723-119.3a1.944,1.944,0,0,0-1.563-.411A43.678,43.678,0,0,0,977.363-117.3Z" transform="translate(-931.956 131.552)"/><path d="M896.208-76.485a17.444,17.444,0,0,1,17.413-17.237,17.4,17.4,0,0,1,17.224,17.407,17.4,17.4,0,0,1-17.4,17.234A17.425,17.425,0,0,1,896.208-76.485Zm32.5.2a15.28,15.28,0,0,0-15.028-15.3,15.282,15.282,0,0,0-15.338,15.166,15.282,15.282,0,0,0,15.122,15.208A15.252,15.252,0,0,0,928.707-76.284Z" transform="translate(-880.844 113.3)"/><path class="b" d="M932.574-72.419A15.252,15.252,0,0,1,917.33-57.347a15.282,15.282,0,0,1-15.122-15.208,15.282,15.282,0,0,1,15.338-15.167A15.28,15.28,0,0,1,932.574-72.419Z" transform="translate(-884.711 109.435)"/><path class="c" d="M930.112-56.11c1.627-1.7,3.219-3.345,4.78-5.016.661-.707,1.255-.828,1.955-.058.622.685,1.28,1.34,1.956,1.972.75.7.629,1.29-.063,1.968q-3.966,3.89-7.878,7.835a1.168,1.168,0,0,1-1.965-.008q-2.177-2.267-4.435-4.455a1.151,1.151,0,0,1,.037-1.965c.074-.063.139-.137.207-.207C927.185-58.576,927.185-58.576,930.112-56.11Z" transform="translate(-898.709 92.671)"/></g></svg>