<svg xmlns="http://www.w3.org/2000/svg" width="89.267" height="89.266" viewBox="0 0 89.267 89.266"><defs><style>.a,.c{fill:#fff;}.a{opacity:0;}.b{fill:#ff0056;}</style></defs><rect class="a" width="89.266" height="89.266" transform="translate(0)"/><g transform="translate(-123.509 -212.06)"><g transform="translate(140.509 236.498)"><path d="M195.007,262.564q-9.535,11.553-19.084,23.1a4.025,4.025,0,0,0-1.029,2.816c.061,4.8,0,9.6.031,14.4a2.228,2.228,0,0,1-1.391,2.281c-3.407,1.649-6.785,3.355-10.181,5.026-1.676.825-2.753.147-2.756-1.735-.007-6.776-.019-13.552.017-20.328a3.135,3.135,0,0,0-.788-2.172q-9.261-11.173-18.484-22.378c-.277-.336-.556-.67-.834-1V261.6a2.113,2.113,0,0,1,2.243-1.247q25,.035,50.006,0a2.139,2.139,0,0,1,2.248,1.248ZM163.82,306.288c2.447-1.21,4.661-2.346,6.916-3.4a1.461,1.461,0,0,0,.952-1.576c-.028-4.722.022-9.445-.01-14.167a3.8,3.8,0,0,1,.95-2.626q8.238-9.913,16.411-19.879c.231-.28.431-.586.706-.963H145.7c.469.583.811,1.02,1.164,1.448,4.8,5.821,9.5,11.73,14.449,17.418a9.706,9.706,0,0,1,2.562,7.287C163.673,295.229,163.82,300.637,163.82,306.288Z" transform="translate(-140.509 -260.348)"/></g><g transform="translate(166.447 248.314)"><circle class="b" cx="10.863" cy="10.863" r="10.863" transform="translate(1.33 1.33)"/><path d="M211.2,311.385A12.193,12.193,0,1,1,223.4,299.192,12.207,12.207,0,0,1,211.2,311.385Zm0-21.726a9.533,9.533,0,1,0,9.533,9.533A9.544,9.544,0,0,0,211.2,289.659Z" transform="translate(-199.009 -286.999)"/></g><g transform="translate(173.352 256.596)"><path class="c" d="M217.76,314.037l-3.178-4.369,2.685-1.953,1.249,1.718,5.3-3.756,1.919,2.71Z" transform="translate(-214.582 -305.677)"/></g><circle class="b" cx="4.688" cy="4.688" r="4.688" transform="translate(157.801 217.499)"/><circle class="b" cx="2.198" cy="2.198" r="2.198" transform="translate(172.361 226.221)"/><path d="M243.766,329.738l7.926,6.547,2.311-2.8-8.02-6.624" transform="translate(-57.474 -60.874)"/></g></svg>