<svg xmlns="http://www.w3.org/2000/svg" width="89.267" height="89.266" viewBox="0 0 89.267 89.266"><defs><style>.a,.d{fill:#fff;}.a{opacity:0;}.b{fill:#ff0056;}.c{fill:#333;}</style></defs><rect class="a" width="89.266" height="89.266" transform="translate(0)"/><g transform="translate(-493.918 -420.866)"><circle class="b" cx="3.495" cy="3.495" r="3.495" transform="translate(561.625 444.124)"/><circle class="b" cx="3.495" cy="3.495" r="3.495" transform="translate(542.62 457.668)"/><circle class="b" cx="3.495" cy="3.495" r="3.495" transform="translate(523.833 442.158)"/><path class="c" d="M520.8,465.6l-.946-3.2,12.35-8.635.946,3.2Z" transform="translate(-8.976 -7.559)"/><circle class="b" cx="3.495" cy="3.495" r="3.495" transform="translate(505.701 454.173)"/><g transform="translate(503.918 452.049)"><path class="c" d="M509.328,477.956a5.409,5.409,0,1,1,5.408-5.409A5.416,5.416,0,0,1,509.328,477.956Zm0-7.949a2.54,2.54,0,1,0,2.54,2.54A2.544,2.544,0,0,0,509.328,470.007Z" transform="translate(-503.918 -467.138)"/></g><g transform="translate(521.815 440.341)"><path class="c" d="M550.573,451.727a5.693,5.693,0,1,1,5.694-5.694A5.7,5.7,0,0,1,550.573,451.727Zm0-8.518a2.825,2.825,0,1,0,2.826,2.824A2.827,2.827,0,0,0,550.573,443.209Z" transform="translate(-544.882 -440.341)"/></g><path class="c" d="M607.235,471.378l-1.289-3.082L619.2,457.382l1.289,3.082Z" transform="translate(-57.452 -9.595)"/><g transform="translate(559.599 441.859)"><path class="c" d="M637.056,455.2a5.693,5.693,0,1,1,5.693-5.693A5.7,5.7,0,0,1,637.056,455.2Zm0-8.518a2.825,2.825,0,1,0,2.825,2.825A2.828,2.828,0,0,0,637.056,446.684Z" transform="translate(-631.362 -443.816)"/></g><path class="c" d="M576.609,469.487l-11.672-9.536,2.046-2.641,11.672,9.536Z" transform="translate(-34.36 -9.555)"/><g transform="translate(540.945 455.995)"><path class="c" d="M593.927,486.692a5.261,5.261,0,1,1,5.263-5.262A5.267,5.267,0,0,1,593.927,486.692Zm0-7.654a2.393,2.393,0,1,0,2.394,2.392A2.395,2.395,0,0,0,593.927,479.038Z" transform="translate(-588.667 -476.17)"/></g><g transform="translate(507.387 470.275)"><line class="d" y2="25.384" transform="translate(1.311 1.311)"/><path class="c" d="M513.169,536.861a1.311,1.311,0,0,1-1.311-1.311V510.166a1.311,1.311,0,1,1,2.621,0V535.55A1.31,1.31,0,0,1,513.169,536.861Z" transform="translate(-511.858 -508.855)"/></g><g transform="translate(516.125 461.25)"><line class="d" y2="34.41" transform="translate(1.311 1.311)"/><path class="c" d="M533.168,525.229a1.311,1.311,0,0,1-1.311-1.311V489.509a1.311,1.311,0,1,1,2.621,0v34.409A1.31,1.31,0,0,1,533.168,525.229Z" transform="translate(-531.857 -488.198)"/></g><g transform="translate(524.863 457.504)"><line class="d" y2="38.155" transform="translate(1.311 1.311)"/><path class="c" d="M553.168,520.4a1.311,1.311,0,0,1-1.311-1.311V480.936a1.311,1.311,0,0,1,2.621,0v38.155A1.31,1.31,0,0,1,553.168,520.4Z" transform="translate(-551.857 -479.625)"/></g><g transform="translate(533.601 465.515)"><line class="d" y2="29.847" transform="translate(1.311 1.311)"/><path class="c" d="M573.168,530.43a1.31,1.31,0,0,1-1.311-1.311V499.272a1.311,1.311,0,0,1,2.621,0v29.847A1.31,1.31,0,0,1,573.168,530.43Z" transform="translate(-571.857 -497.961)"/></g><g transform="translate(542.339 470.379)"><line class="d" y2="25.384" transform="translate(1.311 1.311)"/><path class="c" d="M593.168,537.1a1.31,1.31,0,0,1-1.311-1.311V510.4a1.311,1.311,0,1,1,2.621,0v25.384A1.31,1.31,0,0,1,593.168,537.1Z" transform="translate(-591.857 -509.093)"/></g><g transform="translate(568.552 462.004)"><line class="d" y2="34.41" transform="translate(1.311 1.311)"/><path class="c" d="M653.167,526.955a1.311,1.311,0,0,1-1.311-1.311v-34.41a1.311,1.311,0,0,1,2.621,0v34.41A1.31,1.31,0,0,1,653.167,526.955Z" transform="translate(-651.856 -489.924)"/></g><g transform="translate(559.814 458.259)"><line class="d" y2="38.155" transform="translate(1.311 1.311)"/><path class="c" d="M633.167,522.128a1.311,1.311,0,0,1-1.311-1.311V482.663a1.311,1.311,0,0,1,2.621,0v38.155A1.31,1.31,0,0,1,633.167,522.128Z" transform="translate(-631.856 -481.352)"/></g><g transform="translate(551.076 466.27)"><line class="d" y2="29.847" transform="translate(1.311 1.311)"/><path class="c" d="M613.167,532.156a1.311,1.311,0,0,1-1.311-1.311V501a1.311,1.311,0,1,1,2.621,0v29.847A1.31,1.31,0,0,1,613.167,532.156Z" transform="translate(-611.856 -499.688)"/></g></g></svg>