<svg xmlns="http://www.w3.org/2000/svg" width="89.267" height="89.266" viewBox="0 0 89.267 89.266"><defs><style>.a{fill:#fff;opacity:0;}.b{fill:#ff0056;}</style></defs><rect class="a" width="89.266" height="89.266" transform="translate(0)"/><g transform="translate(4.748 14.896)"><path d="M660.989-72.245c.432-1.171.873-2.338,1.294-3.513q3.706-10.366,7.4-20.734a1.476,1.476,0,0,1,2.256-.968q3.967,1.773,7.932,3.551a1.821,1.821,0,0,1,.969.813.4.4,0,0,0,.281.165c2.072.171,4.146.331,6.217.5q2.766.225,5.53.465a1.582,1.582,0,0,0,1.09-.273c1.5-.99,2.991-1.99,4.556-2.861a7.418,7.418,0,0,1,2.242-.61,16.728,16.728,0,0,1,4.476-.241,9.781,9.781,0,0,1,3.721,1.008c1.4.724,2.764,1.512,4.151,2.261a1.1,1.1,0,0,0,.56.153c1.494-.105,2.987-.234,4.482-.356a.73.73,0,0,1,.12-.015,4.289,4.289,0,0,0,2.789-.97c1.771-1.186,3.583-2.311,5.38-3.457a1.46,1.46,0,0,1,2.387.64q5.7,11.238,11.388,22.476a1.461,1.461,0,0,1-.771,2.248q-4.192,1.963-8.389,3.916a1.421,1.421,0,0,1-1.948-.5c-.225-.3-.449-.6-.691-.928L724.47-66.6a4.145,4.145,0,0,1-.224,4.431,4.057,4.057,0,0,1-4.062,1.683,4.487,4.487,0,0,1-2.273,3.774,4.277,4.277,0,0,1-4.374.021,4.45,4.45,0,0,1-2.878,2.888,4.933,4.933,0,0,1-4.055-.588,6.657,6.657,0,0,1-3.322,1.453,8.475,8.475,0,0,1-4.571-.75c-.495-.211-.958-.493-1.448-.717a.485.485,0,0,0-.411.014,3.962,3.962,0,0,1-6.075-1.677.8.8,0,0,0-.059-.1,4.612,4.612,0,0,1-5.372-3,4.395,4.395,0,0,1-4.789-2.245,3.54,3.54,0,0,1-.307-.745c-.061-.231-.171-.28-.394-.284a3.916,3.916,0,0,1-3.979-3.278,2.829,2.829,0,0,1-.046-.765.492.492,0,0,0-.295-.541c-1.012-.563-2.009-1.15-3.038-1.744a1.637,1.637,0,0,1-2.294.709c-.352-.132-.722-.218-1.083-.327-2.255-.68-4.507-1.376-6.769-2.032a1.8,1.8,0,0,1-1.363-1.181Zm38.476,10.038a1.522,1.522,0,0,1,2.215.127q2.925,2.439,5.857,4.872a3.092,3.092,0,0,0,1.589.747,1.368,1.368,0,0,0,1.507-1.882,3.3,3.3,0,0,0-.819-1.174c-2.6-2.278-5.234-4.522-7.854-6.78-1.1-.944-2.2-1.877-3.274-2.845a1.413,1.413,0,0,1,.422-2.41,1.543,1.543,0,0,1,1.629.417q6.416,5.53,12.851,11.038a7.171,7.171,0,0,0,1.6,1.008,1.315,1.315,0,0,0,1.7-.419,1.858,1.858,0,0,0-.336-2.692q-3.221-2.781-6.458-5.544-2.954-2.533-5.9-5.068a1.361,1.361,0,0,1-.5-1.411,1.439,1.439,0,0,1,2.482-.65q6.115,5.258,12.236,10.511a4.449,4.449,0,0,0,2,1,1.353,1.353,0,0,0,1.5-.443,1.3,1.3,0,0,0-.009-1.554,4.176,4.176,0,0,0-.718-.868q-6.011-5.56-12.042-11.1c-1.924-1.76-3.9-3.466-5.839-5.206a2.154,2.154,0,0,0-1.659-.606c-.417.032-.831.087-1.246.132a.7.7,0,0,0-.576.432,14.177,14.177,0,0,1-2.21,3.134,7.307,7.307,0,0,1-6.5,2.491,3.77,3.77,0,0,1-3.438-3.875,5.867,5.867,0,0,1,1.572-3.811,2.505,2.505,0,0,0,.694-1.575,1.041,1.041,0,0,1,.044-.238c.265-.94.532-1.881.8-2.844l-1.8-.15-4.6-.374c-1.117-.091-2.234-.177-3.35-.276-.278-.025-.4.036-.442.35-.083.627-.219,1.247-.353,1.865a62.333,62.333,0,0,1-5.01,14.005c-.423.87-.87,1.73-1.323,2.627.527.307,1.036.605,1.546.9s1.045.6,1.584.91c.2-.277.363-.52.538-.758a3.953,3.953,0,0,1,6.484.108c.187.276.332.277.616.2a4.221,4.221,0,0,1,4.22.935,12.451,12.451,0,0,1,1.06,1.231s.04-.01.078-.025a4.524,4.524,0,0,1,6.167,3.53.434.434,0,0,0,.308.26A4.082,4.082,0,0,1,699.465-62.207ZM719.048-90.1c-1.606.129-3.169.221-4.724.393a4.081,4.081,0,0,1-3-.663,24.872,24.872,0,0,0-4.312-2.282,9.671,9.671,0,0,0-5.426-.306,5.364,5.364,0,0,0-1.9.466c-1.786,1.082-3.505,2.273-5.241,3.437a3.27,3.27,0,0,0-1.383,2.024,11.914,11.914,0,0,0-.357,1.7,3.153,3.153,0,0,1-1.093,2.328,3.233,3.233,0,0,0-1.044,1.879c-.159.785.122,1.23.916,1.342a4.119,4.119,0,0,0,3.354-.957,11.3,11.3,0,0,0,2.794-3.783,1.56,1.56,0,0,1,1.085-.946,20.937,20.937,0,0,1,2.812-.512,4.528,4.528,0,0,1,3.377,1.1c.552.477,1.125.93,1.663,1.422q7.187,6.555,14.363,13.121c.556.508,1.108,1.021,1.684,1.551l4.209-3.061A64.47,64.47,0,0,1,719.048-90.1Zm-47.1-4.248-7.689,21.527,6.2,1.856A69.532,69.532,0,0,0,676.239-84a40.923,40.923,0,0,0,1.708-7.35.435.435,0,0,0-.154-.365C675.87-92.591,673.94-93.453,671.947-94.348ZM737.1-74.014c-3.419-6.755-6.813-13.463-10.21-20.176a1.026,1.026,0,0,0-.172.063c-1.57,1-3.136,2.008-4.708,3.005-.206.13-.194.264-.14.474a62.093,62.093,0,0,0,3.331,9.608,56.43,56.43,0,0,0,5.372,9.673c.165.237.293.288.549.153.441-.231.9-.426,1.353-.638Zm-45.321,8.808a1.761,1.761,0,0,0-1.61.97c-.657,1.018-1.337,2.021-1.978,3.05a1.283,1.283,0,0,0-.175.761,1.545,1.545,0,0,0,1.114,1.4,1.545,1.545,0,0,0,1.8-.491,39.436,39.436,0,0,0,2.258-3.254A1.625,1.625,0,0,0,691.782-65.206Zm-5.815-2.021a1.423,1.423,0,0,0-1.241.635c-.55.782-1.095,1.568-1.617,2.369a1.491,1.491,0,0,0,.814,2.2,1.49,1.49,0,0,0,1.615-.427c.607-.906,1.213-1.813,1.807-2.728a1,1,0,0,0,.159-.484A1.5,1.5,0,0,0,685.968-67.227Zm18.293,10.993L700.1-59.686A5.509,5.509,0,0,1,698.8-56.86C700.562-55.731,702.9-55.289,704.261-56.234Zm-9.379-.328a1.458,1.458,0,0,1,1.189-1.584.475.475,0,0,0,.232-.144,14.747,14.747,0,0,0,.841-1.238,1.062,1.062,0,0,0-.376-1.391,1.053,1.053,0,0,0-1.42.213c-.63.859-1.235,1.738-1.827,2.624a1.012,1.012,0,0,0,.1,1.275A1.04,1.04,0,0,0,694.882-56.563Zm-12.957-11.19a1.153,1.153,0,0,0-.632-1.1.916.916,0,0,0-1.161.124,13.86,13.86,0,0,0-1.4,2.057.987.987,0,0,0,.541,1.25,1.055,1.055,0,0,0,1.369-.3c.374-.528.741-1.06,1.1-1.6A2.307,2.307,0,0,0,681.925-67.753Z" transform="translate(-660.989 111.766)"/><path d="M702.126-114.108a1.463,1.463,0,0,1,.888,1.294c.426,2.741.89,5.476,1.339,8.213.058.357.12.715.158,1.075a1.082,1.082,0,0,1-.9,1.191,1.065,1.065,0,0,1-1.23-.841c-.206-1.109-.378-2.224-.561-3.337q-.487-2.973-.969-5.946a2.7,2.7,0,0,1-.057-.706,1.162,1.162,0,0,1,.837-.942Z" transform="translate(-666.671 114.108)"/><path d="M713.608-114.108c.777.4.91.724.774,1.637-.23,1.537-.435,3.077-.648,4.616s-.416,3.059-.635,4.587a1.1,1.1,0,0,1-1.2.934,1.056,1.056,0,0,1-.962-1.135c.08-.855.219-1.705.336-2.556q.325-2.339.654-4.678.167-1.2.329-2.4a1.214,1.214,0,0,1,.854-1Z" transform="translate(-668.12 114.108)"/><path d="M724.743-107.4a3.615,3.615,0,0,1-.251.619q-1.849,2.912-3.718,5.811a1.083,1.083,0,0,1-1.563.367,1.088,1.088,0,0,1-.275-1.557q1.857-2.907,3.725-5.808a1.067,1.067,0,0,1,1.258-.493A1.171,1.171,0,0,1,724.743-107.4Z" transform="translate(-669.233 113.308)"/><path d="M694.815-100.242a1.116,1.116,0,0,1-.928-.507q-1.668-2.438-3.328-4.881a1.075,1.075,0,0,1,.251-1.493,1.055,1.055,0,0,1,1.537.251c1.139,1.644,2.261,3.3,3.381,4.956a1,1,0,0,1,.022,1.119A1.079,1.079,0,0,1,694.815-100.242Z" transform="translate(-665.183 113.143)"/><path class="b" d="M672.491-93.789c1.993.895,3.924,1.757,5.846,2.638a.435.435,0,0,1,.153.365,40.918,40.918,0,0,1-1.708,7.35A69.531,69.531,0,0,1,671-70.407l-6.2-1.856Z" transform="translate(-661.533 111.207)"/><path class="b" d="M747.239-73.428l-4.624,2.164c-.452.212-.911.407-1.353.638-.256.135-.384.084-.549-.153a56.43,56.43,0,0,1-5.372-9.673,62.093,62.093,0,0,1-3.331-9.608c-.054-.21-.066-.344.14-.474,1.572-1,3.138-2,4.708-3.005a1.025,1.025,0,0,1,.172-.063C740.426-86.891,743.82-80.183,747.239-73.428Z" transform="translate(-671.124 111.18)"/></g></svg>