<svg xmlns="http://www.w3.org/2000/svg" width="89.267" height="89.266" viewBox="0 0 89.267 89.266"><defs><style>.a{fill:#fff;opacity:0;}.b{fill:#ff0056;}</style></defs><rect class="a" width="89.266" height="89.266" transform="translate(0)"/><g transform="translate(-71.614 -355.189)"><g transform="translate(105.672 385.087)"><path class="b" d="M120.1,390.141a8.986,8.986,0,1,1-9.025,8.945A8.958,8.958,0,0,1,120.1,390.141Z" transform="translate(-109.532 -388.593)"/><path d="M119.857,409.408h-.094a10.533,10.533,0,0,1,.014-21.067h.087a10.533,10.533,0,0,1-.007,21.067Zm-.019-17.973a7.439,7.439,0,1,0-.048,14.878l.067,1.547v-1.547a7.439,7.439,0,0,0-.019-14.878Z" transform="translate(-109.279 -388.34)"/></g><g transform="translate(102.486 408.455)"><path d="M130.58,440.569a1.546,1.546,0,0,1-1.546-1.547V428.808a10.184,10.184,0,1,0-20.369,0v10.214a1.547,1.547,0,0,1-3.094,0V428.808a13.278,13.278,0,1,1,26.556,0v10.214A1.547,1.547,0,0,1,130.58,440.569Z" transform="translate(-105.571 -415.529)"/></g><g transform="translate(98.823 365.189)"><path d="M142.58,420.7a1.547,1.547,0,0,1-1.153-2.578,29.919,29.919,0,0,0-37.769-45.545,1.547,1.547,0,1,1-1.6-2.647,33.012,33.012,0,0,1,41.677,50.254A1.541,1.541,0,0,1,142.58,420.7Z" transform="translate(-101.309 -365.189)"/></g><g transform="translate(83.614 369.706)"><path d="M93.335,421.639a1.543,1.543,0,0,1-1.146-.506,33.016,33.016,0,0,1,7.38-50.464,1.547,1.547,0,1,1,1.6,2.647,29.921,29.921,0,0,0-6.692,45.735,1.547,1.547,0,0,1-1.144,2.588Z" transform="translate(-83.614 -370.444)"/></g><g transform="translate(130.549 380.601)"><path d="M142.248,415.488A1.546,1.546,0,0,1,141,413.023a20.751,20.751,0,0,0-2.309-27.242,1.547,1.547,0,0,1,2.148-2.228,23.846,23.846,0,0,1,2.651,31.307A1.546,1.546,0,0,1,142.248,415.488Z" transform="translate(-138.223 -383.12)"/></g><g transform="translate(100.797 374.357)"><path d="M134.9,385.193a1.543,1.543,0,0,1-1.074-.433,20.746,20.746,0,0,0-27.686-1,1.547,1.547,0,0,1-1.984-2.376,23.843,23.843,0,0,1,31.817,1.145,1.548,1.548,0,0,1-1.074,2.661Z" transform="translate(-103.607 -375.856)"/></g><g transform="translate(92.781 379.529)"><path d="M99.659,414.589a1.546,1.546,0,0,1-1.282-.68,23.847,23.847,0,0,1,4.475-31.676,1.547,1.547,0,1,1,1.983,2.376,20.753,20.753,0,0,0-3.9,27.565,1.547,1.547,0,0,1-1.279,2.415Z" transform="translate(-94.28 -381.874)"/></g></g></svg>