<svg xmlns="http://www.w3.org/2000/svg" width="89.267" height="89.266" viewBox="0 0 89.267 89.266"><defs><style>.a{fill:#fff;opacity:0;}.b{fill:#ff0056;}</style></defs><path class="a" d="M0,0H89.266V89.266H0Z" transform="translate(0)"/><g transform="translate(-89.971 -25.406)"><g transform="translate(107.035 96.895)"><circle class="b" cx="1.138" cy="1.138" r="1.138"/></g><g transform="translate(136.104 68.035)"><circle class="b" cx="1.136" cy="1.136" r="1.136"/></g><g transform="translate(143.862 53.357)"><path class="b" d="M177.665,62.938a4.832,4.832,0,1,0,0,6.837A4.8,4.8,0,0,0,177.665,62.938Z" transform="translate(-169.415 -61.522)"/></g><g transform="translate(143.862 53.357)"><path d="M177.665,62.938a4.832,4.832,0,1,0,0,6.837A4.8,4.8,0,0,0,177.665,62.938Zm-1.606,5.23a2.563,2.563,0,1,1,0-3.624A2.566,2.566,0,0,1,176.058,68.168Z" transform="translate(-169.415 -61.522)"/></g><g transform="translate(110.694 84.477)"><path d="M123.761,117.723a1.136,1.136,0,0,0-1.523.51l-1.353,2.717a3.748,3.748,0,0,1-3.088,2.061l-1.573.107a.673.673,0,0,1-.717-.717l.107-1.573a3.751,3.751,0,0,1,2.061-3.088l2.717-1.353a1.136,1.136,0,0,0-1.012-2.033l-2.717,1.353a6.027,6.027,0,0,0-3.314,4.966l-.108,1.573a2.945,2.945,0,0,0,2.937,3.146c.067,0,.135,0,.2-.007l1.573-.108a6.026,6.026,0,0,0,4.966-3.314l1.353-2.717A1.135,1.135,0,0,0,123.761,117.723Z" transform="translate(-113.233 -114.235)"/></g><g transform="translate(107.037 41.59)"><path d="M164.171,42.346a2.63,2.63,0,0,0-2.013-.751l-1.058.067A34.268,34.268,0,0,0,136.755,54.22l-2.489,3.064-6.514-.191h-.033a19.212,19.212,0,0,0-13.676,5.665l-6.672,6.672a1.135,1.135,0,0,0,.744,1.937l14.123.726-.576.709a1.135,1.135,0,0,0-.116,1.259q.332.61.695,1.2l-3.349,3.976a1.137,1.137,0,0,0-.158,1.218,14.791,14.791,0,0,0,7.1,7.1,1.135,1.135,0,0,0,1.2-.145c.721-.585,1.553-1.279,2.358-1.951.573-.479,1.16-.968,1.709-1.419.327.2.658.388.995.571a1.135,1.135,0,0,0,1.239-.1l.775-.6.729,14.183a1.135,1.135,0,0,0,1.937.744l6.672-6.672a19.214,19.214,0,0,0,5.665-13.676V72.267l2.632-2.043A34.13,34.13,0,0,0,164.925,44.9l.027-.553A2.633,2.633,0,0,0,164.171,42.346ZM110.783,69.229l4.865-4.865a16.96,16.96,0,0,1,12.054-5l4.761.14-8.451,10.4Zm17.155,14.486c-.593.494-1.2,1-1.765,1.466a12.475,12.475,0,0,1-5.06-5.055l2.452-2.911a26.329,26.329,0,0,0,2.43,2.82l0,0h0a26.339,26.339,0,0,0,3.127,2.688C128.734,83.051,128.333,83.385,127.938,83.715Zm18.9-5.227a16.96,16.96,0,0,1-5,12.07l-4.865,4.865-.68-13.212,10.545-8.182v4.459Zm15.815-33.7a31.861,31.861,0,0,1-12.3,23.64L132.54,82.252a24.032,24.032,0,0,1-4.114-3.037l6.005-6.005a1.136,1.136,0,1,0-1.606-1.606l-6,6a24.084,24.084,0,0,1-2.912-3.971l14.605-17.981A31.989,31.989,0,0,1,161.246,43.93l1.057-.067a.358.358,0,0,1,.381.374Z" transform="translate(-107.038 -41.59)"/></g></g></svg>