<svg xmlns="http://www.w3.org/2000/svg" width="89.267" height="89.266" viewBox="0 0 89.267 89.266"><defs><style>.a,.c{fill:#fff;}.a{opacity:0;}.b{fill:#ff0056;stroke-width:2px;}.b,.d{stroke:#000;stroke-miterlimit:10;}.d{fill:none;stroke-width:3px;}</style></defs><rect class="a" width="89.266" height="89.266" transform="translate(0)"/><g transform="translate(19.942 13.219)"><g transform="translate(11.907 14.917)"><circle class="b" cx="12.947" cy="12.947" r="12.947"/></g><g transform="translate(19.396 18.56)"><path class="c" d="M906.454,44.258a5.552,5.552,0,0,1-3.236,1.453v2.082h-2.251V45.787a11.788,11.788,0,0,1-2.663-.478,7.658,7.658,0,0,1-2.082-.947l1.219-2.739a8.308,8.308,0,0,0,4.332,1.295q2.139,0,2.138-1.069a.886.886,0,0,0-.61-.835,11.3,11.3,0,0,0-1.96-.572,18.788,18.788,0,0,1-2.476-.684,4.171,4.171,0,0,1-1.707-1.173,3.167,3.167,0,0,1-.712-2.175,3.757,3.757,0,0,1,1.164-2.767,5.553,5.553,0,0,1,3.357-1.416V30.163h2.251v2.026a10.927,10.927,0,0,1,2.054.375,7.581,7.581,0,0,1,1.753.731l-1.144,2.757a7.64,7.64,0,0,0-3.639-1.013,3.048,3.048,0,0,0-1.613.328.983.983,0,0,0-.507.853.846.846,0,0,0,.6.788,10.878,10.878,0,0,0,1.932.544,18.039,18.039,0,0,1,2.486.685,4.293,4.293,0,0,1,1.707,1.163,3.108,3.108,0,0,1,.722,2.167A3.708,3.708,0,0,1,906.454,44.258Z" transform="translate(-896.223 -30.163)"/></g><g transform="translate(0 0)"><path class="d" d="M898.076,8.516h.815c.346.2.682.416,1.04.59,7.333,3.578,14.659,7.173,22.015,10.7a2.252,2.252,0,0,1,1.455,2.275,62.976,62.976,0,0,1-1.437,15.6c-2.251,10.169-6.634,19.189-14.667,26.061a97.672,97.672,0,0,1-8.407,5.849h-.815a5.378,5.378,0,0,0-.538-.372A40.178,40.178,0,0,1,883.506,57.11c-7.674-10.674-10.318-22.776-9.855-35.7a2.062,2.062,0,0,1,1.026-1.375c1.9-1.021,3.88-1.91,5.822-2.865Q889.29,12.848,898.076,8.516Z" transform="translate(-873.6 -8.516)"/></g></g></svg>