<svg xmlns="http://www.w3.org/2000/svg" width="241" height="170.742" viewBox="0 0 241 170.742"><defs><style>.a,.b{fill:#484848;}.b,.h{stroke:#000;stroke-miterlimit:10;}.b{stroke-width:4px;}.c{fill:#ff0056;}.d,.e,.j{fill:none;}.d{stroke:#362f5f;stroke-width:2px;}.f{fill:#f05;}.g,.k{fill:#fdbd1f;}.h{fill:#fff;}.i,.k{stroke:none;}</style></defs><g transform="translate(-560 -194.272)"><g transform="translate(-119.756 1198.704)"><g transform="translate(717.925 -970.394)"><path class="a" d="M869.055-869.26H725.913c-4.4,0-7.988-3.853-7.988-8.59v-76.122a20.844,20.844,0,0,1,6-14.783l14.137-13.974,3.218,3.254L727.144-965.5a16.243,16.243,0,0,0-4.642,11.529v76.122c0,2.213,1.531,4.014,3.411,4.014H869.055c1.881,0,3.411-1.8,3.411-4.014v-76.122a16.238,16.238,0,0,0-4.644-11.529l-13.133-12.981,3.217-3.254,13.134,12.981a20.845,20.845,0,0,1,6,14.783v76.122C877.043-873.113,873.459-869.26,869.055-869.26Z" transform="translate(-717.925 982.729)"/></g><g transform="translate(812.93 -952.669)"><rect class="a" width="66.492" height="4.577" transform="translate(0 32.171) rotate(-28.936)"/></g><g transform="translate(720.552 -951.549)"><rect class="a" width="4.575" height="66.64" transform="translate(0 4.036) rotate(-61.908)"/></g><g transform="translate(805.336 -903.85)"><path class="b" d="M773.659-940.3" transform="translate(-773.659 940.3)"/></g><g transform="translate(869.905 -864.382)"><path class="b" d="M814.829-915.135" transform="translate(-814.829 915.135)"/></g><g transform="translate(720.046 -936.009)"><path class="a" d="M722.446-884.184l-3.169-3.3L795.719-960.8l75.96,73.324-3.177,3.293-72.794-70.266Z" transform="translate(-719.277 960.805)"/></g><g transform="translate(738.086 -1004.432)"><path class="a" d="M730.9-939.694l-.121-64.738,120.487.46v62.814h-4.576V-999.4l-111.326-.5.112,60.2Z" transform="translate(-730.78 1004.432)"/></g><rect class="c" width="92" height="30" rx="4" transform="translate(751.756 -982.704)"/></g><g class="d" transform="translate(764 208)"><circle class="i" cx="16" cy="16" r="16"/><circle class="j" cx="16" cy="16" r="15"/></g><g class="e" transform="translate(757.119 355.575) rotate(-51)"><path class="i" d="M6.76,3.071a2,2,0,0,1,3.48,0l5.068,8.943A2,2,0,0,1,13.568,15H3.432a2,2,0,0,1-1.74-2.986Z"/><path class="k" d="M 8.499990463256836 4.056690216064453 L 8.499992370605469 4.056694984436035 C 8.499992370605469 4.056696891784668 8.499990463256836 4.056698799133301 8.499990463256836 4.056699752807617 L 3.432120323181152 13 L 13.56787014007568 13 C 13.56787300109863 13 13.5678768157959 13 13.56787967681885 13 L 8.499990463256836 4.056690216064453 M 8.499999046325684 2.056693077087402 C 9.178492546081543 2.056693077087402 9.856985092163086 2.394684791564941 10.24003982543945 3.070670127868652 L 15.30792045593262 12.01397037506104 C 16.06344032287598 13.34724044799805 15.1003303527832 15 13.56787014007568 15 L 3.432120323181152 15 C 1.899669647216797 15 0.9365596771240234 13.34724044799805 1.692079544067383 12.01397037506104 L 6.759949684143066 3.070670127868652 C 7.143010139465332 2.394684791564941 7.821504592895508 2.056693077087402 8.499999046325684 2.056693077087402 Z"/></g><circle class="f" cx="4.5" cy="4.5" r="4.5" transform="translate(565 231)"/><circle class="f" cx="2.5" cy="2.5" r="2.5" transform="translate(796 285)"/><g class="d" transform="translate(587 354)"><circle class="i" cx="5.5" cy="5.5" r="5.5"/><circle class="j" cx="5.5" cy="5.5" r="4.5"/></g><circle class="g" cx="2.5" cy="2.5" r="2.5" transform="translate(560 294)"/><path class="h" d="M688.405,471.6l6.07,23.555,5.14-4.254,5.1,6.168,5.14-4.254-5.1-6.168,4.112-3.4Z" transform="translate(5.14 -240.907)"/></g></svg>