<svg xmlns="http://www.w3.org/2000/svg" xmlns:xlink="http://www.w3.org/1999/xlink" width="1366" height="783" viewBox="0 0 1366 783"><defs><style>.a{fill:url(#a);}.b{fill:#ff0056;}.c,.e,.f,.h{fill:none;}.c{stroke:#362f5f;}.c,.e{stroke-width:2px;}.d{fill:#f05;}.e{stroke:#ccc;}.g,.i{stroke:none;}.i{fill:#fdbd1f;}</style><linearGradient id="a" x1="0.5" y1="0.725" x2="0.5" y2="1" gradientUnits="objectBoundingBox"><stop offset="0" stop-color="#fff"/><stop offset="1" stop-color="#fbfbfb"/></linearGradient></defs><g transform="translate(0 -662)"><rect class="a" width="1366" height="783" transform="translate(0 662)"/><g transform="translate(722.393 105)"><g transform="translate(491.184 620.016)"><path class="b" d="M494.777,655.015A3.594,3.594,0,0,1,492.119,649l15.093-16.6a4.069,4.069,0,0,1,2.6-1.395,4.01,4.01,0,0,1,3.023.834l6.675,5.613L534.4,620.332a3.595,3.595,0,0,1,5.426,4.717l-16.836,19.358a4.128,4.128,0,0,1-2.627,1.44,4.048,4.048,0,0,1-3.038-.835l-6.723-5.654-13.166,14.482A3.583,3.583,0,0,1,494.777,655.015Z" transform="translate(-491.184 -619.098)"/></g><g transform="translate(527.58 617)"><path class="b" d="M530.453,632.665a3.594,3.594,0,0,1-3.531-2.947l-1.011-5.529h-5.817a3.594,3.594,0,0,1,0-7.188H531.9l2.089,11.422A3.592,3.592,0,0,1,531.1,632.6,3.47,3.47,0,0,1,530.453,632.665Z" transform="translate(-516.5 -617)"/></g></g><g class="c" transform="translate(1194 1082)"><circle class="g" cx="10" cy="10" r="10"/><circle class="h" cx="10" cy="10" r="9"/></g><circle class="d" cx="4.5" cy="4.5" r="4.5" transform="translate(191 959)"/><g class="e" transform="translate(272 1326)"><circle class="g" cx="17.5" cy="17.5" r="17.5"/><circle class="h" cx="17.5" cy="17.5" r="16.5"/></g><g class="f" transform="translate(1220.5 1339.5) rotate(-90)"><path class="g" d="M11.259,3.08a2,2,0,0,1,3.482,0l9.572,16.935A2,2,0,0,1,22.572,23H3.428a2,2,0,0,1-1.741-2.984Z"/><path class="i" d="M 13 4.064569473266602 C 12.99999809265137 4.064569473266602 12.99999618530273 4.064569473266602 13 4.064559936523438 L 3.427799224853516 21 L 22.57220077514648 21 L 13.00001049041748 4.064569473266602 C 13.00000667572021 4.064569473266602 13.00000381469727 4.064569473266602 13 4.064569473266602 M 13 2.064567565917969 C 13.67916488647461 2.064567565917969 14.35832977294922 2.403194427490234 14.74112987518311 3.080450057983398 L 24.31332969665527 20.01588821411133 C 25.0669002532959 21.34912872314453 24.10367965698242 23 22.57220077514648 23 L 3.427799224853516 23 C 1.896320343017578 23 0.9330997467041016 21.34912872314453 1.686670303344727 20.01588821411133 L 11.25887012481689 3.080450057983398 C 11.64167022705078 2.403194427490234 12.32083511352539 2.064567565917969 13 2.064567565917969 Z"/></g></g></svg>